<svg width="21" height="21" viewBox="0 0 21 21" fill="none" xmlns="http://www.w3.org/2000/svg">
<path fill-rule="evenodd" clip-rule="evenodd" d="M11.1461 2.79223C12.0891 1.88144 13.3521 1.37747 14.6631 1.38886C15.9741 1.40025 17.2282 1.9261 18.1552 2.85314C19.0823 3.78018 19.6081 5.03424 19.6195 6.34523C19.6309 7.65621 19.1269 8.91922 18.2161 9.86223L18.206 9.87256L15.7061 12.3725C15.1992 12.8795 14.5892 13.2717 13.9174 13.5222C13.2457 13.7728 12.5279 13.876 11.8127 13.8248C11.0976 13.7736 10.4018 13.5692 9.77263 13.2254C9.14344 12.8816 8.59553 12.4066 8.16608 11.8325C7.89041 11.4639 7.96569 10.9417 8.33423 10.666C8.70278 10.3903 9.22502 10.4656 9.50069 10.8342C9.78699 11.2169 10.1523 11.5336 10.5717 11.7628C10.9912 11.992 11.455 12.1282 11.9318 12.1624C12.4085 12.1965 12.8871 12.1277 13.3349 11.9607C13.7828 11.7936 14.1894 11.5322 14.5274 11.1942L14.5275 11.1941L17.0221 8.69945C17.6263 8.07131 17.9605 7.23142 17.9529 6.35971C17.9453 5.48572 17.5947 4.64968 16.9767 4.03165C16.3587 3.41362 15.5226 3.06306 14.6486 3.05546C13.7766 3.04789 12.9363 3.38239 12.3081 3.98709L10.8793 5.40761C10.5529 5.7321 10.0252 5.73056 9.70075 5.40417C9.37626 5.07779 9.3778 4.55015 9.70418 4.22567L11.1375 2.80067L11.1461 2.79223Z" fill="#6D6AFE"/>
<path fill-rule="evenodd" clip-rule="evenodd" d="M7.08263 7.47744C7.75439 7.22685 8.47218 7.12367 9.18732 7.17488C9.90247 7.2261 10.5982 7.43052 11.2274 7.77428C11.8566 8.11803 12.4045 8.59309 12.834 9.16722C13.1096 9.53576 13.0344 10.058 12.6658 10.3337C12.2973 10.6093 11.775 10.5341 11.4994 10.1655C11.2131 9.78276 10.8478 9.46606 10.4283 9.23689C10.0089 9.00772 9.54503 8.87144 9.06827 8.83729C8.5915 8.80315 8.11298 8.87194 7.66514 9.03899C7.2173 9.20605 6.81062 9.46747 6.4727 9.80551L3.978 12.3002C3.3738 12.9284 3.03959 13.7683 3.04716 14.64C3.05476 15.514 3.40532 16.35 4.02335 16.968C4.64138 17.5861 5.47742 17.9366 6.35141 17.9442C7.22311 17.9518 8.063 17.6176 8.69114 17.0134L10.1107 15.5938C10.4362 15.2683 10.9638 15.2683 11.2893 15.5938C11.6147 15.9192 11.6147 16.4469 11.2893 16.7723L9.86426 18.1973L9.85393 18.2074C8.91092 19.1182 7.64791 19.6222 6.33692 19.6108C5.02594 19.5994 3.77188 19.0736 2.84484 18.1465C1.9178 17.2195 1.39195 15.9654 1.38056 14.6544C1.36917 13.3435 1.87314 12.0805 2.78393 11.1374L2.79408 11.1271L5.29397 8.62722C5.29394 8.62725 5.29401 8.62718 5.29397 8.62722C5.80084 8.1202 6.41092 7.728 7.08263 7.47744Z" fill="#6D6AFE"/>
</svg>
